<svg width="30" height="30" viewBox="0 0 30 30" fill="none" xmlns="http://www.w3.org/2000/svg">
<path d="M22 0C26.4183 0 30 3.58172 30 8V22C30 26.4183 26.4183 30 22 30H8C3.58172 30 2.25497e-07 26.4183 0 22V8C0 3.58172 3.58172 2.2549e-07 8 0H22ZM15.7422 17.2715C15.5314 17.4885 15.2463 17.6104 14.9492 17.6104C14.6521 17.6103 14.367 17.4886 14.1562 17.2715L6.03906 8.88086C6.01417 8.97573 6.00122 9.07356 6 9.17188V20.834C6.00004 21.1431 6.11835 21.4396 6.3291 21.6582C6.54008 21.8769 6.82663 22 7.125 22H22.875C23.1734 22 23.4599 21.8769 23.6709 21.6582C23.8816 21.4396 24 21.1431 24 20.834V9.17188C23.9955 9.05054 23.9728 8.93046 23.9326 8.81641L15.7422 17.2715ZM11.9961 16.6182L7.89551 20.834H7.11328V20L11.2031 15.7959L11.9961 16.6182ZM22.8584 20L22.8633 20.834H22.0762L17.9756 16.6182L18.7686 15.7959L22.8584 20ZM22.8691 8.00586H7.11914C7.01829 8.00749 6.91811 8.02342 6.82129 8.05273L14.9492 16.4434L23.0996 8.00586C23.0231 7.99771 22.9457 7.99768 22.8691 8.00586Z" fill="#165383"/>
</svg>
