<svg width="30" height="30" viewBox="0 0 30 30" fill="none" xmlns="http://www.w3.org/2000/svg">
<path d="M22 0C26.4183 0 30 3.58172 30 8V22C30 26.4183 26.4183 30 22 30H8C3.58172 30 2.25497e-07 26.4183 0 22V8C0 3.58172 3.58172 2.2549e-07 8 0H22ZM18.8301 6C17.7081 6.0095 16.5848 5.9996 15.4551 6.01562V6.0166C15.4285 9.19805 15.4466 12.3807 15.4395 15.5723C15.4291 16.9883 15.4627 18.3984 15.3779 19.8145C15.3682 20.1238 15.186 20.3932 15.0234 20.6562C14.521 21.4074 13.5969 21.9202 12.6328 21.9297C11.1788 22.0477 9.81668 20.9562 9.61133 19.6572C9.60097 19.231 9.55004 18.7851 9.72852 18.3838C9.94482 17.8161 10.3587 17.3289 10.9062 16.998C11.6547 16.5212 12.6561 16.45 13.5127 16.7041C13.5127 15.5315 13.5634 14.3601 13.5459 13.1875C11.6711 12.8657 9.66881 13.4092 8.23926 14.5508C6.97811 15.531 6.16526 16.9722 6.00977 18.4785C5.99416 18.8711 5.99702 19.2649 6.01953 19.6572C6.1983 21.5097 7.42548 23.2358 9.16895 24.1787C10.2211 24.7476 11.4547 25.0559 12.6895 24.9912C14.7024 24.9603 16.6618 23.9704 17.791 22.4521C18.4929 21.5401 18.8916 20.4388 18.959 19.332C18.9855 17.0282 18.9688 14.7176 18.9746 12.4043C19.4232 12.6732 19.882 12.9364 20.374 13.1406C21.5038 13.6323 22.7549 13.8698 24 13.9072V10.7197C22.6714 10.5838 21.3062 10.1809 20.3408 9.30273C19.3736 8.44591 18.8981 7.21188 18.8301 6Z" fill="#165383"/>
</svg>
