<svg width="30" height="30" viewBox="0 0 30 30" fill="none" xmlns="http://www.w3.org/2000/svg">
<path d="M22 0C26.4183 0 30 3.58172 30 8V22C30 26.4183 26.4183 30 22 30H8C3.58172 30 2.25497e-07 26.4183 0 22V8C0 3.58172 3.58172 2.2549e-07 8 0H22ZM15.8887 13.2393L12.1143 8.17383L7.63281 8.15039L13.415 15.9121L7.5127 22.2207L8.50879 22.5723L14.0107 16.7119L17.9971 22.0625H22.4648L16.4775 14.0283L21.9424 8.21289L20.9609 7.82129L15.8887 13.2393ZM11.374 9.63379L19.5459 20.5977H18.7314L10.5615 9.62988L11.374 9.63379Z" fill="#165383"/>
</svg>
